<svg width="180" height="180" viewBox="0 0 180 180" fill="none" xmlns="http://www.w3.org/2000/svg">
  <!-- White Background with Rounded Corners for iOS -->
  <rect width="180" height="180" rx="40" fill="white"/>
  
  <defs>
    <linearGradient id="gradient" x1="0%" y1="0%" x2="100%" y2="100%">
      <stop offset="0%" style="stop-color:#0ea5e9;stop-opacity:1" />
      <stop offset="50%" style="stop-color:#0284c7;stop-opacity:1" />
      <stop offset="100%" style="stop-color:#0369a1;stop-opacity:1" />
    </linearGradient>
  </defs>
  
  <!-- Background Circle -->
  <circle cx="90" cy="90" r="70" fill="url(#gradient)"/>
  
  <!-- Wave Pattern -->
  <path d="M30 98 Q60 78 90 98 T150 98" stroke="white" stroke-width="5" fill="none" opacity="0.9"/>
  <path d="M30 112 Q60 92 90 112 T150 112" stroke="white" stroke-width="4" fill="none" opacity="0.7"/>
  <path d="M30 126 Q60 106 90 126 T150 126" stroke="white" stroke-width="3" fill="none" opacity="0.5"/>
  
  <!-- Swimmer Icon -->
  <g transform="translate(54, 54) scale(2.8)">
    <!-- Head -->
    <circle cx="8" cy="8" r="3" fill="white" opacity="0.95"/>
    <!-- Body -->
    <ellipse cx="8" cy="16" rx="2" ry="6" fill="white" opacity="0.9"/>
    <!-- Arms -->
    <path d="M6 12 L2 10 M10 12 L14 10" stroke="white" stroke-width="1.5" stroke-linecap="round" opacity="0.9"/>
    <!-- Legs -->
    <path d="M6 20 L4 24 M10 20 L12 24" stroke="white" stroke-width="1.5" stroke-linecap="round" opacity="0.9"/>
  </g>
  
  <!-- Bike Wheel -->
  <g transform="translate(100, 48) scale(2.8)">
    <circle cx="8" cy="8" r="6" stroke="white" stroke-width="1.5" fill="none" opacity="0.8"/>
    <circle cx="8" cy="8" r="1" fill="white" opacity="0.9"/>
    <path d="M8 2 L8 14 M2 8 L14 8" stroke="white" stroke-width="0.8" opacity="0.6"/>
  </g>
  
  <!-- Running Figure -->
  <g transform="translate(36, 118) scale(2.8)">
    <!-- Head -->
    <circle cx="4" cy="4" r="2" fill="white" opacity="0.9"/>
    <!-- Body -->
    <path d="M4 6 L4 12" stroke="white" stroke-width="1.5" stroke-linecap="round" opacity="0.9"/>
    <!-- Arms -->
    <path d="M2 8 L6 8" stroke="white" stroke-width="1.2" stroke-linecap="round" opacity="0.8"/>
    <!-- Legs -->
    <path d="M4 12 L2 16 M4 12 L6 16" stroke="white" stroke-width="1.2" stroke-linecap="round" opacity="0.8"/>
  </g>
</svg>