<svg width="64" height="64" viewBox="0 0 64 64" fill="none" xmlns="http://www.w3.org/2000/svg">
  <defs>
    <linearGradient id="gradient" x1="0%" y1="0%" x2="100%" y2="100%">
      <stop offset="0%" style="stop-color:#0ea5e9;stop-opacity:1" />
      <stop offset="50%" style="stop-color:#0284c7;stop-opacity:1" />
      <stop offset="100%" style="stop-color:#0369a1;stop-opacity:1" />
    </linearGradient>
  </defs>
  
  <!-- Background Circle -->
  <circle cx="32" cy="32" r="30" fill="url(#gradient)" stroke="rgba(255,255,255,0.2)" stroke-width="2"/>
  
  <!-- Wave Pattern -->
  <path d="M12 35 Q22 28 32 35 T52 35" stroke="white" stroke-width="2.5" fill="none" opacity="0.9"/>
  <path d="M12 40 Q22 33 32 40 T52 40" stroke="white" stroke-width="2" fill="none" opacity="0.7"/>
  <path d="M12 45 Q22 38 32 45 T52 45" stroke="white" stroke-width="1.5" fill="none" opacity="0.5"/>
  
  <!-- Swimmer Icon -->
  <g transform="translate(20, 20)">
    <!-- Head -->
    <circle cx="8" cy="8" r="3" fill="white" opacity="0.95"/>
    <!-- Body -->
    <ellipse cx="8" cy="16" rx="2" ry="6" fill="white" opacity="0.9"/>
    <!-- Arms -->
    <path d="M6 12 L2 10 M10 12 L14 10" stroke="white" stroke-width="1.5" stroke-linecap="round" opacity="0.9"/>
    <!-- Legs -->
    <path d="M6 20 L4 24 M10 20 L12 24" stroke="white" stroke-width="1.5" stroke-linecap="round" opacity="0.9"/>
  </g>
  
  <!-- Bike Wheel -->
  <g transform="translate(36, 18)">
    <circle cx="8" cy="8" r="6" stroke="white" stroke-width="1.5" fill="none" opacity="0.8"/>
    <circle cx="8" cy="8" r="1" fill="white" opacity="0.9"/>
    <path d="M8 2 L8 14 M2 8 L14 8 M4.9 4.9 L11.1 11.1 M11.1 4.9 L4.9 11.1" stroke="white" stroke-width="0.8" opacity="0.6"/>
  </g>
  
  <!-- Running Figure -->
  <g transform="translate(14, 42)">
    <!-- Head -->
    <circle cx="4" cy="4" r="2" fill="white" opacity="0.9"/>
    <!-- Body -->
    <path d="M4 6 L4 12" stroke="white" stroke-width="1.5" stroke-linecap="round" opacity="0.9"/>
    <!-- Arms -->
    <path d="M2 8 L6 8" stroke="white" stroke-width="1.2" stroke-linecap="round" opacity="0.8"/>
    <!-- Legs -->
    <path d="M4 12 L2 16 M4 12 L6 16" stroke="white" stroke-width="1.2" stroke-linecap="round" opacity="0.8"/>
  </g>
  
  <!-- Decorative Elements -->
  <circle cx="48" cy="16" r="1.5" fill="white" opacity="0.6"/>
  <circle cx="16" cy="48" r="1" fill="white" opacity="0.4"/>
  <circle cx="52" cy="48" r="1.2" fill="white" opacity="0.5"/>
</svg>